<svg width="70" height="70" viewBox="0 0 70 70" fill="none" xmlns="http://www.w3.org/2000/svg">
<g id="Left">
<circle id="Ellipse 144" cx="35" cy="35" r="35" fill="white"/>
<path id="Union" fill-rule="evenodd" clip-rule="evenodd" d="M32.6498 29.168C33.0035 28.3279 33.2001 27.5711 33.23 27.0936L31.7329 27C31.7178 27.2421 31.5883 27.8235 31.2673 28.5859C30.9532 29.332 30.4759 30.2022 29.8071 31.0277C28.4785 32.6677 26.4069 34.1233 23.3055 34.1233V34.3932V35.6233V35.8932C23.3056 35.8932 23.3058 35.8932 23.3059 35.8932V36.0025H24.7337C27.059 36.37 28.6939 37.6147 29.8071 38.9888C30.4759 39.8144 30.9532 40.6846 31.2673 41.4307C31.5883 42.1931 31.7178 42.7744 31.7329 43.0165L33.23 42.923C33.2001 42.4454 33.0035 41.6886 32.6498 40.8486C32.2892 39.9922 31.7432 38.9958 30.9726 38.0446C30.3761 37.3082 29.6431 36.5979 28.7592 36.0025H48V34.5025H27.9486C29.2047 33.8301 30.2024 32.9227 30.9726 31.9719C31.7432 31.0208 32.2892 30.0243 32.6498 29.168Z" fill="#053C4F"/>
</g>
</svg>
