<svg width="70" height="70" viewBox="0 0 70 70" fill="none" xmlns="http://www.w3.org/2000/svg">
<g id="Right">
<circle id="Ellipse 143" cx="35" cy="35" r="35" fill="white"/>
<path id="Union" fill-rule="evenodd" clip-rule="evenodd" d="M38.3502 29.168C37.9965 28.3279 37.7999 27.5711 37.77 27.0936L39.2671 27C39.2822 27.2421 39.4117 27.8235 39.7327 28.5859C40.0468 29.332 40.5241 30.2022 41.1929 31.0277C42.5215 32.6677 44.5931 34.1233 47.6945 34.1233V34.3932V35.6233V35.8932C47.6944 35.8932 47.6942 35.8932 47.6941 35.8932V36.0025H46.2663C43.941 36.37 42.3061 37.6147 41.1929 38.9888C40.5241 39.8144 40.0468 40.6846 39.7327 41.4307C39.4117 42.1931 39.2822 42.7744 39.2671 43.0165L37.77 42.923C37.7999 42.4454 37.9965 41.6886 38.3502 40.8486C38.7108 39.9922 39.2568 38.9958 40.0274 38.0446C40.6239 37.3082 41.3569 36.5979 42.2408 36.0025H23V34.5025H43.0514C41.7953 33.8301 40.7976 32.9227 40.0274 31.9719C39.2568 31.0208 38.7108 30.0243 38.3502 29.168Z" fill="#053C4F"/>
</g>
</svg>
